<?xml version="1.0" encoding="utf-8"?>
<!-- Generator: Adobe Illustrator 18.1.1, SVG Export Plug-In . SVG Version: 6.00 Build 0)  -->
<svg version="1.1" id="Layer_1" xmlns="http://www.w3.org/2000/svg" xmlns:xlink="http://www.w3.org/1999/xlink" x="0px" y="0px"
	 width="153px" height="195.8px" viewBox="230 591 153 195.8" style="enable-background:new 230 591 153 195.8;"
	 xml:space="preserve">
<style type="text/css">
	.st0{fill:#6B461F;}
	.st1{fill:#FBAB18;}
	.st2{fill:#EF5D5F;}
	.st3{fill:#F17565;}
	.st4{fill:#FDBA63;}
	.st5{fill:#0081A9;}
	.st6{fill:#FFE08C;}
	.st7{fill:#84582B;}
	.st8{fill:#9CC638;}
	.st9{fill:#7B5126;}
</style>
<g>
	<g>
		<g>
			<path class="st0" d="M340,684.7c-0.6,0.3-1.2,0.4-1.9,0.3l-30.4-7.1c-1.3-0.3-2.1-1.7-1.9-3c0.3-1.3,1.6-2.1,2.9-1.9l28.3,6.5
				l7.3-21.4c0.4-1.3,1.9-2,3.2-1.6c1.3,0.4,2,1.9,1.5,3.3l-8,23.5C340.9,683.9,340.4,684.4,340,684.7z"/>
		</g>
		<g>
			<path class="st1" d="M323.7,682c-0.9,0.6-1.9,0.8-2.9,0.6l-13.4-3c-2.1-0.4-3.5-2.7-2.9-4.8c0.4-2.1,2.6-3.6,4.7-3l13.4,3.1
				c2.1,0.4,3.5,2.7,2.9,4.8C325.1,680.6,324.5,681.5,323.7,682z"/>
		</g>
	</g>
	<g>
		<path class="st2" d="M348.2,627.3c-0.6,0.3-1.4,0.3-2.2,0c-1.1-0.3-2.1-1.1-2.7-2.1c-1.7-2.7-0.9-6.8-3-9.3
			c-1.2-1.4-3.2-1.9-5-2.3c3,0.2,6.1,0.7,9,1.8c2.9,1.1,5.6,2.9,7.3,5.5c0.4,0.7,0.8,1.4,0.9,2.2c0.1,1-0.4,1.9-1.2,2.6
			c-0.6,0.7-1.4,1.1-2.3,1.6L348.2,627.3z"/>
	</g>
	<g>
		<path class="st3" d="M349.7,622.2c0.1,0.4,0,0.9-0.1,1.3c0,0.1-0.1,0.2-0.1,0.3c0,0,0,0-0.1,0.1c-0.3,0.3-0.9,0.7-1.3,0.9h-0.6
			c-0.3,0.2-0.9,0.2-1.2,0c-0.1,0-0.1,0-0.2-0.1c-0.1,0-0.2-0.2-0.3-0.2c-0.8-0.7-1.2-1.7-1.5-2.6c-0.1-0.7-0.2-1.4-0.4-2.1
			c0.3,0,0.8,0,1.1,0c1.4,0.1,2.9,0.6,4.1,1.6C349.3,621.7,349.6,621.9,349.7,622.2z"/>
	</g>
	<g>
		<path class="st4" d="M340.9,674.2l2.1-15.5c0-0.3,0-0.6,0-0.8l-1.9-26.9c-0.1-1.7,0.8-3.1,2.1-3.6l4.7-1.8c1-0.3,2-0.1,2.7,0.6
			l0.6,0.6c0.8,0.8,1.2,2.1,0.9,3.3l-4.9,28c-0.1,0.1,0,0.3,0,0.6l-0.3,16.2c-0.1,1.3-0.8,2.6-1.7,3.1l-1.1,0.6
			c-0.2,0.1-0.6,0.1-0.8-0.1l-1.3-1C341.1,676.9,340.7,675.5,340.9,674.2z"/>
		<path class="st1" d="M352.1,630.1c0.2-1.2-0.1-2.5-0.9-3.3l-0.6-0.6c0-0.1-0.1-0.1-0.3-0.2c-0.3,3.5-0.9,6.6-1.7,9.8
			c-1.3,5-3.4,9.7-6.3,13.6l0.6,8.4c0,0,0,0,0,0.1c1.6-0.7,3.3-1.7,4.9-2.7L352.1,630.1z"/>
		<path class="st5" d="M347.8,655.4c-1.5,1-3.2,1.9-4.9,2.7c0,0.2,0,0.4,0,0.8l-0.6,3.7c1.6-0.4,3.3-1.1,4.8-2V659
			c0-0.2,0-0.3,0-0.6L347.8,655.4z"/>
		<path class="st6" d="M349.9,643.3l-0.6,2.9c-1-0.6-1.5-2.1-1.9-3.6c-0.2,0.2-0.4,0.2-0.8,0.2c-0.6,0.1-1.5-0.4-1.5-1.3
			c-0.1-1.7-0.1-3.3-0.1-4.9c-0.6,1.8-1.2,3.8-1.9,5.4c-0.3,0.8-0.6,1.4-1.2,1.9l-0.2-3.8c0.3-0.8,0.4-1.6,0.8-2.3
			c0.6-2.1,1.4-4,2.6-5.6c0.6-0.7,1.6-0.1,1.7,0.7c0.1,1.3,0.3,2.8,0.3,4.2c0,0.2,0,1.6,0,2.6c0.2-0.2,0.3-0.2,0.6-0.3
			c0.6-0.1,1.1,0.3,1.2,1C349.1,640.9,349.5,642.5,349.9,643.3z"/>
	</g>
	<g>
		<path class="st7" d="M348.9,660.1l-1.4,2.7c-1.1,2-3.4,2.8-5.3,1.8l0,0c-2-1.1-2.7-3.5-1.7-5.5l1.4-2.7c1.1-2,3.4-2.8,5.3-1.8l0,0
			C349.1,655.6,350,658.1,348.9,660.1z"/>
	</g>
	<g>
		<polygon class="st4" points="307.6,703.5 294.4,700.3 296.2,668.5 320,674 		"/>
	</g>
	<g>
		<polygon class="st1" points="320,674 309.8,697.9 296,671.9 296.2,668.5 		"/>
	</g>
	<g>
		<g>
			<polygon class="st8" points="311.3,696.9 309,704.3 294,702.4 294.9,692.7 			"/>
		</g>
	</g>
	<g>
		<ellipse class="st0" cx="309.2" cy="663.1" rx="14.1" ry="14.4"/>
		<path class="st9" d="M321.1,655.3c4.1,6.7,2.2,15.6-4.3,19.9c-4.7,3-10.2,2.9-14.5,0.3c2.9,0.2,5.9-0.4,8.5-2.2
			c6.5-4.2,8.5-13.2,4.3-19.9c-1.3-2.1-2.9-3.7-4.7-4.7C314.5,648.9,318.5,651.2,321.1,655.3z"/>
	</g>
	<g>
		<g>
			<path class="st0" d="M303.9,677.5c-0.6,0.3-1.2,0.4-1.9,0.3l-28.2-7.3L266,692c-0.4,1.3-1.9,2-3,1.4c-1.3-0.4-2-1.9-1.4-3.1
				l8.6-23.4c0.4-1.2,1.6-1.9,2.8-1.6l30.3,7.8c1.3,0.3,2.2,1.7,1.7,3C304.8,676.7,304.4,677.2,303.9,677.5z"/>
		</g>
		<g>
			<path class="st4" d="M304.7,678.8c-0.9,0.6-2,0.9-3,0.6l-13.3-3.3c-2.1-0.6-3.4-2.7-2.8-4.8c0.6-2.1,2.6-3.5,4.7-2.9l13.3,3.3
				c2.1,0.6,3.4,2.7,2.8,4.8C306.1,677.4,305.5,678.2,304.7,678.8z"/>
		</g>
	</g>
	<g>
		<path class="st7" d="M270.2,690.6l-1.4,2.7c-1.1,2-3.4,2.8-5.3,1.8l0,0c-2-1.1-2.7-3.5-1.7-5.5l1.4-2.7c1.1-2,3.4-2.8,5.3-1.8l0,0
			C270.3,686.3,271,688.7,270.2,690.6z"/>
	</g>
	<g>
		<g>
			<path class="st0" d="M358.4,718.6c-0.2,0.2-0.6,0.4-0.8,0.6c-1.3,0.6-2.6,0-3.2-1.4l-21.6-21l-28.1,7.9c-1.3,0.4-2.6-0.4-2.9-1.7
				c-0.4-1.3,0.4-2.7,1.6-3l30.1-8.6c1.2-0.3,1.2-0.3,3.2,1.3l22.3,23.2C359.4,716.7,359.2,717.8,358.4,718.6z"/>
		</g>
		<g>
			<g>
				<path class="st8" d="M320,701.2c-0.4,0.4-1,0.8-1.7,1L305,706c-2.1,0.6-4.3-0.7-4.8-2.8c-0.6-2.1,0.6-4.4,2.7-4.9l13.2-3.8
					c2.1-0.6,4.3,0.7,4.8,2.8C321.5,698.8,320.9,700.2,320,701.2z"/>
			</g>
		</g>
	</g>
	<g>
		<path class="st4" d="M359.1,712.1l2.9-0.1c2.2-0.1,4.1,1.8,4.1,3.9l0,0c0.1,2.2-1.7,4.1-3.8,4.1l-2.9,0.1c-2.2,0.1-4-1.8-4-3.9
			l0,0C355.2,714,356.9,712.1,359.1,712.1z"/>
	</g>
	<g>
		<g>
			<path class="st0" d="M245.6,707.6c0.1-0.2,0.3-0.6,0.4-0.8c1-1,2.4-1.1,3.5-0.1l28.2,9.6l22.1-19.4c1-0.9,2.6-0.8,3.4,0.2
				c0.9,1,0.8,2.7-0.2,3.5l-23.7,20.9c-1,0.8-1,0.8-3.4,0.1L246,710.3C245.5,709.7,245.2,708.6,245.6,707.6z"/>
		</g>
		<g>
			<g>
				<path class="st8" d="M287.5,706.6c0.2-0.7,0.6-1.1,1.2-1.7l10.3-9.2c1.6-1.3,4.1-1.2,5.4,0.4c1.3,1.7,1.2,4.2-0.4,5.6l-10.3,9.2
					c-1.6,1.3-4.1,1.2-5.4-0.4C287.2,709.4,287.1,707.9,287.5,706.6z"/>
			</g>
		</g>
	</g>
	<g>
		<path class="st4" d="M249.4,710.6l-2.3,2c-1.6,1.4-4.1,1.1-5.6-0.6l0,0c-1.4-1.7-1.1-4.2,0.6-5.7l2.3-2c1.6-1.4,4.1-1.1,5.6,0.6
			l0,0C251.3,706.6,251,709.2,249.4,710.6z"/>
	</g>
</g>
</svg>
